<svg width="960" height="540" viewBox="0 0 960 540" fill="none" xmlns="http://www.w3.org/2000/svg">
  <defs>
    <linearGradient id="wall" x1="0" y1="0" x2="960" y2="540" gradientUnits="userSpaceOnUse">
      <stop stop-color="#fff2d9"/>
      <stop offset="0.55" stop-color="#f5d4a6"/>
      <stop offset="1" stop-color="#d4924d"/>
    </linearGradient>
    <radialGradient id="coinGlow" cx="0" cy="0" r="1" gradientUnits="userSpaceOnUse" gradientTransform="translate(545 325) rotate(90) scale(86)">
      <stop stop-color="#fff7a6"/>
      <stop offset="0.45" stop-color="#ffd23f" stop-opacity="0.65"/>
      <stop offset="1" stop-color="#ffd23f" stop-opacity="0"/>
    </radialGradient>
    <linearGradient id="sunbeam" x1="178" y1="86" x2="500" y2="500" gradientUnits="userSpaceOnUse">
      <stop stop-color="#fff9cc" stop-opacity="0.85"/>
      <stop offset="1" stop-color="#fff9cc" stop-opacity="0"/>
    </linearGradient>
    <filter id="blur" x="-40%" y="-40%" width="180%" height="180%"><feGaussianBlur stdDeviation="9"/></filter>
  </defs>

  <rect width="960" height="540" fill="url(#wall)"/>
  <rect y="402" width="960" height="138" fill="#8f572a"/>
  <path d="M0 430C154 394 327 412 486 396C630 381 787 381 960 410V540H0V430Z" fill="#b97939"/>

  <rect x="36" y="102" width="188" height="178" rx="8" fill="#bf8041"/>
  <rect x="48" y="114" width="74" height="154" rx="4" fill="#c8edff"/>
  <rect x="138" y="114" width="74" height="154" rx="4" fill="#d9f5ff"/>
  <path d="M64 280L381 520L532 540L204 280H64Z" fill="url(#sunbeam)" opacity="0.65"/>
  <path d="M224 102C260 130 276 205 257 286C239 271 219 264 206 262V102H224Z" fill="#2e63b8" opacity="0.75"/>

  <rect x="54" y="304" width="325" height="104" rx="26" fill="#7f4b29"/>
  <rect x="38" y="278" width="356" height="92" rx="15" fill="#f8edda"/>
  <path d="M50 282H380V379H50V282Z" fill="#315dc2"/>
  <path d="M50 294C125 321 220 307 304 292C342 286 367 291 380 302V379H50V294Z" fill="#4a74df"/>
  <g fill="#fff2c2" opacity="0.88"><path d="M92 324l7 14 15 2-11 10 3 15-14-7-13 7 2-15-11-10 15-2 7-14z"/><path d="M186 342l4 9 10 1-7 7 2 10-9-5-9 5 2-10-7-7 10-1 4-9z"/><path d="M300 315l6 12 14 2-10 9 3 14-13-7-12 7 2-14-10-9 14-2 6-12z"/></g>
  <ellipse cx="210" cy="418" rx="185" ry="54" fill="#214a9b" opacity="0.42"/>

  <rect x="656" y="148" width="252" height="58" rx="11" fill="#a4612c"/>
  <rect x="680" y="88" width="78" height="72" rx="10" fill="#c57927"/>
  <circle cx="719" cy="71" r="34" fill="#ffc83d" stroke="#b97900" stroke-width="6"/>
  <path d="M719 45l7 16 17 2-13 11 4 17-15-9-15 9 4-17-13-11 17-2 7-16z" fill="#fff2a3"/>
  <rect x="780" y="78" width="70" height="78" rx="12" fill="#cc3432"/>
  <rect x="797" y="102" width="36" height="27" rx="4" fill="#4cb4e8"/>
  <circle cx="799" cy="95" r="6" fill="#111"/><circle cx="832" cy="95" r="6" fill="#111"/>
  <rect x="868" y="94" width="48" height="64" rx="8" fill="#2b8d4a"/>
  <path d="M892 68C875 76 869 91 868 112C891 108 907 95 914 73C905 72 898 72 892 68Z" fill="#3fac63"/>

  <rect x="640" y="245" width="260" height="164" rx="14" fill="#a86531"/>
  <rect x="666" y="290" width="204" height="68" rx="10" fill="#cf843e"/>
  <circle cx="768" cy="325" r="12" fill="#623614"/>
  <rect x="675" y="218" width="42" height="92" rx="7" fill="#2863bd"/>
  <rect x="725" y="205" width="16" height="105" fill="#ffc83d"/>
  <rect x="748" y="201" width="16" height="109" fill="#ef4444"/>
  <rect x="772" y="210" width="16" height="100" fill="#2fb06f"/>
  <rect x="800" y="194" width="18" height="116" fill="#4e75d9"/>
  <rect x="828" y="216" width="46" height="66" rx="8" fill="#43a1d7"/>

  <g transform="translate(430 275)">
    <ellipse cx="0" cy="-56" rx="82" ry="46" fill="#4a230f"/>
    <path d="M-78 -24C-52 -98 41 -103 86 -34C50 -59 25 -48 0 -73C-24 -45 -52 -53 -78 -24Z" fill="#4a230f"/>
    <circle cx="0" cy="0" r="68" fill="#f7b177"/>
    <circle cx="-25" cy="-8" r="9" fill="#111"/><circle cx="27" cy="-8" r="9" fill="#111"/>
    <circle cx="-28" cy="-11" r="3" fill="#fff"/><circle cx="24" cy="-11" r="3" fill="#fff"/>
    <path d="M-26 32C-7 51 18 51 37 30" stroke="#7b3117" stroke-width="7" stroke-linecap="round"/>
    <rect x="-58" y="70" width="116" height="112" rx="35" fill="#d63a27"/>
    <path d="M-92 168C-45 145 45 145 95 168C76 219-72 219-92 168Z" fill="#225db6"/>
    <circle cx="-48" cy="6" r="11" fill="#f29b79" opacity="0.7"/><circle cx="48" cy="6" r="11" fill="#f29b79" opacity="0.7"/>
  </g>

  <circle cx="545" cy="325" r="86" fill="url(#coinGlow)"/>
  <circle cx="545" cy="325" r="28" fill="#ffc531" stroke="#a96700" stroke-width="5"/>
  <text x="533" y="338" font-family="Arial" font-size="34" font-weight="900" fill="#fff5c7">$</text>

  <rect x="120" y="444" width="92" height="54" rx="8" fill="#2b6ab8" stroke="#123963" stroke-width="4"/>
  <circle cx="139" cy="499" r="9" fill="#111"/><circle cx="194" cy="499" r="9" fill="#111"/>
  <rect x="214" y="440" width="82" height="58" rx="8" fill="#e63f2e"/>
  <text x="226" y="474" font-family="Arial" font-weight="900" font-size="15" fill="#fff3a8">SONHOS</text>
  <circle cx="828" cy="443" r="42" fill="#fff" stroke="#222" stroke-width="5"/>
  <path d="M828 405L850 421L842 449H814L806 421Z" fill="#222"/>

  <g fill="#fff4ba" opacity="0.72"><circle cx="288" cy="104" r="4"/><circle cx="579" cy="118" r="3"/><circle cx="245" cy="252" r="3"/><circle cx="608" cy="246" r="4"/><circle cx="876" cy="323" r="3"/><circle cx="117" cy="386" r="3"/></g>
</svg>