<svg xmlns="http://www.w3.org/2000/svg" viewBox="0 0 1200 900"><rect width="1200" height="900" fill="#fbe7b3"/><rect x="0" y="0" width="1200" height="330" fill="#fff7df"/><rect x="70" y="90" width="300" height="230" rx="18" fill="#93dbff"/><circle cx="120" cy="130" r="45" fill="#ffd23f"/><rect x="90" y="560" width="520" height="190" rx="35" fill="#2e70c9"/><rect x="130" y="500" width="440" height="90" rx="35" fill="#75421b"/><rect x="680" y="300" width="360" height="300" rx="22" fill="#9a5b2a"/><rect x="720" y="390" width="280" height="120" rx="12" fill="#d89042"/><text x="740" y="470" font-size="70">📚 🦖 ⚽</text><circle cx="480" cy="420" r="110" fill="#ffd39a"/><circle cx="445" cy="405" r="12"/><circle cx="520" cy="405" r="12"/><path d="M450 455 Q485 490 530 455" stroke="#7a3215" stroke-width="12" fill="none" stroke-linecap="round"/><path d="M380 320 Q500 230 610 325" stroke="#5b2b12" stroke-width="52" fill="none" stroke-linecap="round"/><rect x="405" y="535" width="165" height="105" rx="35" fill="#e73524"/><circle cx="805" cy="640" r="62" fill="#f7b813" stroke="#b66b00" stroke-width="8"/><text x="780" y="665" font-family="Arial" font-size="60" fill="#fff">$</text><text x="70" y="845" font-family="Arial Rounded MT Bold, Arial" font-size="55" fill="#0d2c68" font-weight="900">O quarto de Léo</text></svg>
