<svg width="960" height="540" viewBox="0 0 960 540" fill="none" xmlns="http://www.w3.org/2000/svg">
  <defs>
    <linearGradient id="wall" x1="0" y1="0" x2="960" y2="540" gradientUnits="userSpaceOnUse">
      <stop stop-color="#233B74"/>
      <stop offset="0.54" stop-color="#8C5A32"/>
      <stop offset="1" stop-color="#2E1F26"/>
    </linearGradient>
    <linearGradient id="sun" x1="520" y1="72" x2="617" y2="236" gradientUnits="userSpaceOnUse">
      <stop stop-color="#FFF8C7"/>
      <stop offset="1" stop-color="#F59A34" stop-opacity="0"/>
    </linearGradient>
    <radialGradient id="coinGlow" cx="0" cy="0" r="1" gradientUnits="userSpaceOnUse" gradientTransform="translate(684 336) rotate(90) scale(62)">
      <stop stop-color="#FFF8AE"/>
      <stop offset="0.45" stop-color="#FFD23F" stop-opacity="0.72"/>
      <stop offset="1" stop-color="#FFD23F" stop-opacity="0"/>
    </radialGradient>
    <filter id="soft" x="-20%" y="-20%" width="140%" height="140%">
      <feGaussianBlur stdDeviation="8"/>
    </filter>
  </defs>
  <rect width="960" height="540" fill="url(#wall)"/>
  <path d="M0 382H960V540H0V382Z" fill="#4A2B1B"/>
  <path d="M0 393C180 376 350 389 518 384C650 380 802 362 960 370V540H0V393Z" fill="#6B3F24"/>

  <rect x="448" y="58" width="194" height="162" rx="8" fill="#E3B26E"/>
  <rect x="462" y="72" width="76" height="136" rx="4" fill="#FFDCA2"/>
  <rect x="552" y="72" width="76" height="136" rx="4" fill="#FFE6B5"/>
  <rect x="461" y="72" width="168" height="136" fill="url(#sun)" opacity="0.86"/>
  <path d="M501 219L661 461H350L458 220H501Z" fill="#F7C75F" opacity="0.24" filter="url(#soft)"/>
  <path d="M432 58C405 84 389 142 404 215C423 203 444 197 459 195V58H432Z" fill="#7670B0" opacity="0.8"/>
  <path d="M646 58C674 86 686 147 671 215C651 202 632 197 619 195V58H646Z" fill="#7670B0" opacity="0.8"/>

  <rect x="17" y="76" width="120" height="130" rx="6" fill="#5E371E"/>
  <rect x="29" y="90" width="96" height="106" rx="4" fill="#1A2957"/>
  <text x="45" y="126" fill="#FFD23F" font-family="Arial" font-weight="700" font-size="14">CONFIE</text>
  <text x="45" y="145" fill="#FFD23F" font-family="Arial" font-weight="700" font-size="14">EM VOCÊ</text>
  <circle cx="76" cy="171" r="23" fill="#B7762C"/>

  <rect x="684" y="104" width="120" height="106" rx="6" fill="#5E371E"/>
  <rect x="696" y="116" width="96" height="82" rx="3" fill="#26325F"/>
  <text x="716" y="145" fill="#FFD23F" font-family="Arial" font-weight="800" font-size="18">FOCO</text>
  <text x="711" y="169" fill="#FFD23F" font-family="Arial" font-weight="800" font-size="14">CORAGEM</text>

  <rect x="38" y="335" width="330" height="95" rx="28" fill="#C58B55"/>
  <rect x="21" y="300" width="362" height="90" rx="12" fill="#8C542E"/>
  <rect x="34" y="286" width="334" height="104" rx="16" fill="#EFE1C8"/>
  <path d="M38 279H363V395H38V279Z" fill="#314A98"/>
  <path d="M48 290C128 316 209 303 294 290C328 286 350 291 363 301V395H38V300C41 296 44 293 48 290Z" fill="#4664C7"/>
  <g fill="#FFD23F" opacity="0.82">
    <path d="M85 326l5 10 11 1-8 8 2 11-10-5-10 5 2-11-8-8 11-1 5-10z"/>
    <path d="M174 350l4 8 9 1-7 6 2 9-8-4-8 4 2-9-7-6 9-1 4-8z"/>
    <path d="M285 319l5 10 11 1-8 8 2 11-10-5-10 5 2-11-8-8 11-1 5-10z"/>
  </g>

  <rect x="604" y="316" width="170" height="128" rx="10" fill="#8A4E26"/>
  <rect x="621" y="339" width="137" height="54" rx="8" fill="#C17A35"/>
  <circle cx="690" cy="366" r="11" fill="#5B3218"/>
  <rect x="795" y="240" width="145" height="170" rx="8" fill="#8B552D"/>
  <rect x="806" y="252" width="122" height="88" rx="5" fill="#5E371E"/>
  <rect x="828" y="204" width="20" height="64" fill="#AA6A32"/>
  <rect x="852" y="210" width="20" height="58" fill="#D38B36"/>
  <rect x="878" y="196" width="20" height="72" fill="#D65B3E"/>
  <rect x="904" y="215" width="14" height="53" fill="#315CB0"/>

  <circle cx="684" cy="336" r="72" fill="url(#coinGlow)"/>
  <circle cx="684" cy="336" r="24" fill="#FFC531" stroke="#B56E00" stroke-width="5"/>
  <text x="673" y="348" fill="#FFF8D6" font-family="Arial" font-size="30" font-weight="900">$</text>

  <g transform="translate(310 235)">
    <ellipse cx="0" cy="-42" rx="70" ry="37" fill="#3B2114"/>
    <circle cx="0" cy="0" r="58" fill="#F4B075"/>
    <path d="M-60 -16C-44 -76 31 -87 64 -32C45 -52 24 -47 0 -61C-24 -42 -40 -50 -60 -16Z" fill="#3B2114"/>
    <circle cx="-20" cy="-5" r="7" fill="#1A1717"/>
    <circle cx="25" cy="-5" r="7" fill="#1A1717"/>
    <path d="M-22 29C-8 44 13 45 31 28" stroke="#7B3319" stroke-width="6" stroke-linecap="round"/>
    <rect x="-47" y="63" width="94" height="88" rx="30" fill="#C43425"/>
    <rect x="-88" y="123" width="176" height="68" rx="34" fill="#274C9D"/>
  </g>

  <circle cx="99" cy="244" r="5" fill="#FFD23F" opacity="0.75"/>
  <circle cx="177" cy="80" r="4" fill="#FFD23F" opacity="0.8"/>
  <circle cx="228" cy="151" r="3" fill="#FFD23F" opacity="0.78"/>
  <circle cx="742" cy="63" r="4" fill="#FFD23F" opacity="0.78"/>
  <circle cx="553" cy="266" r="3" fill="#FFF1A6" opacity="0.8"/>
</svg>
